<?xml version="1.0" standalone="no"?>
<!DOCTYPE svg PUBLIC "-//W3C//DTD SVG 20010904//EN"
 "http://www.w3.org/TR/2001/REC-SVG-20010904/DTD/svg10.dtd">
<svg version="1.0" xmlns="http://www.w3.org/2000/svg"
 width="767.000000pt" height="767.000000pt" viewBox="0 0 767.000000 767.000000"
 preserveAspectRatio="xMidYMid meet">

<g transform="translate(0.000000,767.000000) scale(0.100000,-0.100000)"
fill="#fff" stroke="none">
<path d="M3635 7454 c-1474 -97 -2712 -1041 -3185 -2430 -192 -564 -241 -1205
-135 -1779 133 -721 459 -1352 964 -1869 308 -314 623 -542 1006 -727 973
-469 2116 -474 3083 -13 384 182 690 400 998 708 485 485 785 1019 955 1701
75 301 90 406 96 655 8 328 -14 608 -72 895 -193 957 -778 1797 -1623 2327
-428 269 -954 453 -1472 513 -133 15 -498 26 -615 19z m-1157 -680 c141 -36
287 -145 344 -259 150 -295 31 -691 -301 -1007 -242 -230 -537 -358 -824 -358
-200 1 -326 48 -443 164 -107 108 -154 224 -154 382 0 138 40 284 116 424 119
218 402 476 630 575 97 42 237 83 324 95 81 11 233 3 308 -16z m2374 -1709
c140 -29 263 -94 370 -194 170 -158 250 -342 250 -571 0 -189 -52 -342 -168
-489 -166 -213 -448 -328 -713 -291 -310 43 -557 254 -653 560 -20 64 -23 96
-23 220 0 132 2 153 28 232 89 269 313 475 581 533 81 18 245 18 328 0z
m-1303 -1321 c37 -85 133 -224 217 -313 415 -441 1072 -517 1579 -183 89 59
231 195 307 295 48 63 63 76 81 73 128 -27 551 -137 697 -182 194 -58 495
-163 690 -238 l115 -45 -2 -33 c-3 -55 -91 -343 -150 -493 -132 -337 -343
-692 -577 -970 -79 -94 -312 -329 -406 -409 -548 -465 -1206 -747 -1905 -818
-188 -19 -586 -16 -765 6 -1274 153 -2353 981 -2830 2171 -68 170 -160 467
-160 516 0 13 44 33 167 79 678 252 1346 429 1943 514 302 44 706 82 890 84
l85 2 24 -56z"/>
<path d="M4542 4880 c-110 -29 -187 -75 -273 -160 -187 -186 -232 -458 -114
-693 77 -152 220 -268 388 -313 70 -19 225 -18 301 2 209 54 378 227 432 444
24 95 15 253 -19 342 -69 180 -198 304 -384 369 -87 31 -237 35 -331 9z m288
-45 c189 -50 339 -197 396 -390 26 -87 24 -231 -5 -315 -33 -93 -82 -169 -155
-238 -220 -205 -548 -200 -761 13 -116 115 -165 234 -165 397 0 238 154 450
378 522 91 30 225 34 312 11z"/>
</g>
</svg>
